<?xml version="1.0" encoding="UTF-8"?>
<!-- Simplified Google G mark (for use as a small icon) -->
<svg xmlns="http://www.w3.org/2000/svg" viewBox="0 0 48 48" width="48" height="48" role="img" aria-label="Google">
  <path fill="#4285F4" d="M24 9.5c3.9 0 6.3 1.6 7.8 3l5.7-5.6C35.2 3 30.2 1 24 1 14.9 1 7.3 5.8 3.2 13.4l6.6 5.1C11.9 13 17.5 9.5 24 9.5z"/>
  <path fill="#34A853" d="M46.5 24.5c0-1.6-.1-2.8-.4-4.1H24v8h12.7c-.5 3.1-2.9 6-7.6 7.9-4.6 1.9-10.6 2.9-18.1 2.9C30.2 42.3 44 34.1 46.5 24.5z"/>
  <path fill="#FBBC05" d="M7.7 29.2C6.9 26.9 6.4 24.5 6.4 21.9c0-2.6.5-5 1.4-7.3L1 9.5C.3 11.3 0 13.5 0 15.9c0 3.6.6 7 1.9 10.2 1.3 3.2 3 6 5.8 8.8l.0-.7z"/>
  <path fill="#EA4335" d="M24 46.9c6.2 0 11.7-2 15.8-5.4l-7.4-6c-2.2 1.5-5.1 2.8-8.4 3.5-3.3.7-6.9 1.1-10.6 1.1-7.2 0-13.6-2.3-18.1-6.3l-6.6 5.1C7.3 42.2 14.9 46.9 24 46.9z"/>
</svg>
